<?xml version="1.0" encoding="utf-8"?>
<!-- Generator: Adobe Illustrator 18.1.1, SVG Export Plug-In . SVG Version: 6.00 Build 0)  -->
<svg version="1.1" xmlns="http://www.w3.org/2000/svg" xmlns:xlink="http://www.w3.org/1999/xlink" x="0px" y="0px"
	 viewBox="0 0 917.5 148.3" style="enable-background:new 0 0 917.5 148.3;" xml:space="preserve">
<g id="TECHCENTER">
	<g>
		<path style="fill:#2F67D6;" d="M201.7,77.3h-21.1V61.3h59.5v16.1H219v67.9h-17.3V77.3z"/>
		<path style="fill:#2F67D6;" d="M246.1,61.3h54.1V77h-36.8v18.1h32.4v15.7h-32.4v18.7h37.3v15.7h-54.6V61.3z"/>
		<path style="fill:#2F67D6;" d="M305.8,103.9v-1.1c0-25.4,15.8-42.7,38-42.7c12.5,0,20.5,4.6,27,11.2l-10.4,13.4
			c-5-5.2-10.3-8.4-17.2-8.4c-11.3,0-19.6,10.4-19.6,26.8v0.4c0,16.7,8.6,26.9,19.8,26.9c6.7,0,11.6-3.1,17.3-8.8l10.4,12.4
			c-7.6,7.8-15.6,12.6-28.4,12.6C320.6,146.4,305.8,129.5,305.8,103.9z"/>
		<path style="fill:#2F67D6;" d="M377.2,61.3h17.4V95h27.6V61.3h17.4v84h-17.4v-34.2h-27.6v34.2h-17.4V61.3z"/>
		<path style="fill:#1D3E82;" d="M446.8,134.6l5.6-6.8c7,6.5,14.2,10.4,23.6,10.4c10.1,0,16.8-6.1,16.8-14.2v-0.1
			c0-7-3.4-11.4-18.6-16.8c-17.4-6.5-24.2-12.7-24.2-24.6v-0.2c0-12.6,10.6-22.2,25.3-22.2c9.7,0,17.8,3,25.2,9.5l-5.4,7
			c-6.2-5.4-12.8-8.2-20.2-8.2c-9.6,0-15.8,5.9-15.8,13.1v0.2c0,7.3,3.7,11.5,19.6,17.3c17,6.4,23.3,13.2,23.3,24.4v0.2
			c0,13.4-11,22.9-26,22.9C465.1,146.4,455.5,142.7,446.8,134.6z"/>
		<path style="fill:#1D3E82;" d="M512.7,61.3h51.2v8.3h-42.2v29.3h37.9v8.2h-37.9v30h42.8v8.3h-51.8V61.3z"/>
		<path style="fill:#1D3E82;" d="M573.7,61.3h28.7c9.6,0,17.3,2.9,22.1,7.8c4.2,4.2,6.6,10.2,6.6,17.3v0.2
			c0,13.3-8.3,21.4-19.9,24.2l22.6,34.4h-10.8l-21.1-32.6h-19.1v32.6h-9V61.3z M600.8,104.5c13.7,0,21.2-6.8,21.2-17.5v-0.2
			c0-11-7.7-17.2-20.3-17.2h-19.1v34.9H600.8z"/>
		<path style="fill:#1D3E82;" d="M634.5,61.3h9.8l24.7,71.5l24.8-71.5h9.5l-30.2,84.6h-8.3L634.5,61.3z"/>
		<path style="fill:#1D3E82;" d="M712.1,61.3h9v84h-9V61.3z"/>
		<path style="fill:#1D3E82;" d="M733.1,103.7V103c0-25.4,15.8-43,36.8-43c11.5,0,19,4.2,25.6,10.3l-5.5,6.8
			c-5.3-5-11.6-8.8-20.2-8.8c-15.5,0-27.4,14.2-27.4,34.4v0.5c0,20.6,11.9,34.7,27.4,34.7c8.6,0,14.8-3.6,20.8-9.4l5.4,6.2
			c-7.1,7-15.1,11.5-26.6,11.5C748.6,146.4,733.1,129.3,733.1,103.7z"/>
		<path style="fill:#1D3E82;" d="M804.4,61.3h51.2v8.3h-42.2v29.3h37.9v8.2h-37.9v30h42.8v8.3h-51.8V61.3z"/>
		<path style="fill:#1D3E82;" d="M862.3,134.6l5.6-6.8c7,6.5,14.2,10.4,23.6,10.4c10.1,0,16.8-6.1,16.8-14.2v-0.1
			c0-7-3.4-11.4-18.6-16.8c-17.4-6.5-24.2-12.7-24.2-24.6v-0.2c0-12.6,10.6-22.2,25.3-22.2c9.7,0,17.8,3,25.2,9.5l-5.4,7
			c-6.2-5.4-12.8-8.2-20.2-8.2c-9.6,0-15.8,5.9-15.8,13.1v0.2c0,7.3,3.7,11.5,19.6,17.3c17,6.4,23.3,13.2,23.3,24.4v0.2
			c0,13.4-11,22.9-26,22.9C880.6,146.4,871,142.7,862.3,134.6z"/>
	</g>
</g>
<g id="cochrane">
	<path style="fill:#2F67D6;" d="M241.4,27.6c0,4.6-3.7,8.3-8.3,8.3c-4.6,0-8.3-3.7-8.3-8.3c0-4.6,3.7-8.3,8.3-8.3
		C237.7,19.4,241.4,23.1,241.4,27.6z"/>
	<g>
		<path style="fill:none;" d="M233.1,15c-7,0-12.6,5.6-12.6,12.6c0,7,5.6,12.6,12.6,12.6c7,0,12.6-5.7,12.6-12.6
			C245.7,20.7,240.1,15,233.1,15z"/>
		<path style="fill:none;" d="M211.8,18.6c-2.3-2.4-5.5-3.9-9.1-3.9c-7,0-12.6,5.6-12.6,12.6c0,7,5.6,12.6,12.6,12.6
			c3.6,0,6.9-1.6,9.2-4c-1.1-2.7-1.7-5.7-1.7-8.8C210.2,24.1,210.8,21.2,211.8,18.6z"/>
		<path style="fill:none;" d="M330.7,15c-0.3,0-0.5,0-0.8,0.1v8.2c0.3,0,0.5,0.1,0.8,0.1c2.3,0,4.2-1.9,4.2-4.2S333,15,330.7,15z"/>
		<polygon style="fill:none;" points="360.8,32.8 364.5,32.8 362.5,28.8 		"/>
		<path d="M253.4,15.8c-4-7-11.5-11.8-20.1-11.8c-9.4,0-17.5,5.6-21.1,13.7v-12c-2.7-1.1-5.7-1.8-8.9-1.8
			c-12.7,0-23.1,10.3-23.1,23.1c0,12.7,10.3,23.1,23.1,23.1c3.1,0,6.1-0.6,8.9-1.8v-12c3.6,8.1,11.7,13.7,21.1,13.7
			c8.6,0,16.2-4.7,20.1-11.8c4,7,11.5,11.8,20.1,11.8c3.1,0,6.1-0.6,8.9-1.8V35.6c-2.3,2.6-5.7,4.3-9.5,4.3c-7,0-12.6-5.6-12.6-12.6
			c0-7,5.6-12.6,12.6-12.6c3.8,0,7.2,1.7,9.5,4.3V5.8c-2.7-1.1-5.7-1.8-8.9-1.8C264.9,4,257.3,8.7,253.4,15.8z M202.7,39.9
			c-7,0-12.6-5.6-12.6-12.6c0-7,5.6-12.6,12.6-12.6c3.6,0,6.8,1.5,9.1,3.9c-1,2.6-1.6,5.5-1.6,8.5c0,3.1,0.6,6.1,1.7,8.8
			C209.6,38.3,206.4,39.9,202.7,39.9z M233.1,40.3c-7,0-12.6-5.7-12.6-12.6c0-7,5.6-12.6,12.6-12.6c7,0,12.6,5.6,12.6,12.6
			C245.7,34.6,240.1,40.3,233.1,40.3z"/>
		<path d="M429.9,14.6c3.8,0,7.2,1.7,9.5,4.3V5.8c-2.7-1.1-5.7-1.8-8.9-1.8C421,4,413,9.6,409.4,17.7V5.2h-10.6v20.3l-10.2-10.3
			l-9.9-10l-0.8,0.8v13.6l0,16.4L368,15.9l0,0L362.2,4l-0.6-0.3l0,0l-5.3,12.4l0,0L348.7,34c0,0,0,0,0,0c-1.6-2-3.7-4.1-6.4-6
			c1.9-2.4,3.1-5.5,3.1-8.8c0-7.7-6.3-14-14-14v0h-1.8h-2.4H319v7.6v12.9v24.5h10.6V33.1c0.1,0,0.2,0,0.4,0
			c2.4,0.6,11.8,3.6,11.5,17.1h0.4h11.4l1.1-2.5c0,0,0,0,0,0l2.1-4.9h12.9l3.6,7.3h4.9l10.5,0.1l0-20l0,0l10.2,10.3l9.5,9.6h1.2
			V36.4c3.6,8.1,11.7,13.7,21.1,13.7c3.1,0,6.1-0.6,8.9-1.8V35.6c-2.3,2.6-5.7,4.3-9.5,4.3c-5,0-9.3-2.9-11.3-7.1h15.3v-11h-15.3
			C420.6,17.5,424.9,14.6,429.9,14.6z M330.7,23.3c-0.3,0-0.5,0-0.8-0.1v-8.2c0.3,0,0.5-0.1,0.8-0.1c2.3,0,4.2,1.9,4.2,4.2
			S333,23.3,330.7,23.3z M360.8,32.8l1.7-4l2,4H360.8z"/>
		<polygon points="305.2,22.7 295.4,22.7 295.4,5.2 284.7,5.2 284.7,50.1 295.4,50.1 295.4,32.8 305.2,32.8 305.2,50.1 315.9,50.1 
			315.9,5.2 305.2,5.2 		"/>
	</g>
</g>
<g id="arrow">
	<path d="M115,41.3H99V25.3L49,68h40h10h16c14.8,0,26.8,12,26.8,26.8c0,14.8-12,26.8-26.8,26.8c-8,0-15.2-3.5-20.1-9.1l-20.3,17.3
		c9.8,11.3,24.2,18.4,40.3,18.4c29.5,0,53.5-23.9,53.5-53.5S144.5,41.3,115,41.3z"/>
</g>
<g id="arrow_copy">
	<path style="fill:#2F67D6;" d="M53.5,106.9h16V123l50-42.7h-40h-10h-16c-14.8,0-26.8-12-26.8-26.8c0-14.8,12-26.8,26.8-26.8
		c8,0,15.2,3.5,20.1,9.1l20.3-17.3C84,7.1,69.6,0,53.5,0C23.9,0,0,23.9,0,53.5C0,83,23.9,106.9,53.5,106.9z"/>
</g>
</svg>
